<svg width="2083" height="178" viewBox="0 0 2083 178" fill="none" xmlns="http://www.w3.org/2000/svg">
<path d="M0 175V164C0 155.667 2 148.167 6 141.5C10 134.833 15.25 128.75 21.75 123.25C28.4167 117.583 35.6667 112.333 43.5 107.5C51.5 102.667 59.4167 98 67.25 93.5C76.25 88.3333 84.6667 83.6667 92.5 79.5C100.333 75.1667 106.75 70.8333 111.75 66.5C116.75 62 119.25 57.1667 119.25 52C119.25 48 118 44.5 115.5 41.5C113 38.5 109.25 36.1667 104.25 34.5C99.25 32.8333 92.6667 32 84.5 32C76.3333 32 69.4167 33.1667 63.75 35.5C58.25 37.8333 54.0833 40.9167 51.25 44.75C48.5833 48.5833 47.25 52.8333 47.25 57.5V63.5H1.5C1.33333 62.3333 1.16667 61.3333 1 60.5C1 59.5 1 58.4167 1 57.25C1 45.25 4.41667 35.0833 11.25 26.75C18.25 18.25 28.3333 11.6667 41.5 7C54.6667 2.33333 70.6667 0 89.5 0C101.333 0 112 1.08333 121.5 3.25C131.167 5.41667 139.5 8.58334 146.5 12.75C153.5 16.9167 158.833 22.1667 162.5 28.5C166.167 34.8333 168 42.25 168 50.75C168 58.9167 165.917 66.3333 161.75 73C157.75 79.6667 152.333 85.75 145.5 91.25C138.833 96.5833 131.417 101.417 123.25 105.75C115.25 110.083 107.25 114.083 99.25 117.75C94.5833 119.917 89.9167 122.083 85.25 124.25C80.5833 126.25 76.3333 128.25 72.5 130.25C68.8333 132.25 65.8333 134.333 63.5 136.5H170V175H0Z" fill="#22352D"/>
<path d="M284.301 178C264.801 178 248.301 175.583 234.801 170.75C221.467 165.75 211.301 158.917 204.301 150.25C197.467 141.417 194.051 131.333 194.051 120H239.051C239.217 125.5 241.051 130.25 244.551 134.25C248.051 138.25 252.801 141.333 258.801 143.5C264.967 145.667 271.967 146.75 279.801 146.75C287.134 146.75 293.884 145.667 300.051 143.5C306.217 141.333 311.134 138.167 314.801 134C318.634 129.667 320.551 124.25 320.551 117.75C320.551 111.417 318.884 106.167 315.551 102C312.384 97.8333 307.801 94.75 301.801 92.75C295.967 90.5833 288.967 89.5 280.801 89.5C274.967 89.5 269.551 90.0833 264.551 91.25C259.717 92.25 255.467 93.8333 251.801 96C248.134 98.1667 245.134 100.917 242.801 104.25L203.051 99.25L212.051 3.00001H353.801V41H248.051L244.801 73.25C247.467 71.4167 251.217 69.5833 256.051 67.75C261.051 65.75 266.884 64 273.551 62.5C280.217 61 287.551 60.25 295.551 60.25C310.217 60.25 322.967 62.5 333.801 67C344.801 71.3333 353.384 77.8333 359.551 86.5C365.717 95 368.801 105.667 368.801 118.5C368.801 130 365.384 140.25 358.551 149.25C351.717 158.25 341.967 165.333 329.301 170.5C316.634 175.5 301.634 178 284.301 178Z" fill="#22352D"/>
<path d="M478.816 178C462.816 178 449.233 175.917 438.066 171.75C427.066 167.583 418.15 161.583 411.316 153.75C404.483 145.917 399.483 136.583 396.316 125.75C393.316 114.917 391.816 102.667 391.816 89C391.816 75.3333 393.316 63.0833 396.316 52.25C399.483 41.4167 404.4 32.0833 411.066 24.25C417.9 16.4167 426.816 10.4167 437.816 6.25001C448.983 2.08334 462.566 0 478.566 0C494.566 0 508.066 2.08334 519.066 6.25001C530.066 10.4167 538.983 16.4167 545.816 24.25C552.65 32.0833 557.566 41.4167 560.566 52.25C563.733 63.0833 565.316 75.3333 565.316 89C565.316 102.667 563.733 114.917 560.566 125.75C557.566 136.583 552.65 145.917 545.816 153.75C539.15 161.583 530.316 167.583 519.316 171.75C508.316 175.917 494.816 178 478.816 178ZM478.816 146.75C488.483 146.75 496.15 144.833 501.816 141C507.483 137 511.566 131.167 514.066 123.5C516.566 115.833 517.816 106.167 517.816 94.5V83C517.816 71.3333 516.566 61.6667 514.066 54C511.566 46.3333 507.483 40.6667 501.816 37C496.15 33.1667 488.483 31.25 478.816 31.25C469.316 31.25 461.65 33.1667 455.816 37C450.15 40.6667 445.983 46.3333 443.316 54C440.816 61.6667 439.566 71.3333 439.566 83V94.5C439.566 106.167 440.816 115.833 443.316 123.5C445.983 131.167 450.15 137 455.816 141C461.65 144.833 469.316 146.75 478.816 146.75Z" fill="#22352D"/>
<path d="M598.1 175V3.00001H648.85V86.5L742.35 3.00001H806.6L728.1 74L808.35 175H745.35L690.6 104.5L648.85 138.25V175H598.1Z" fill="#B14F32"/>
<path d="M897.95 151L958.79 27.16H999.65L1060.49 151H1020.71L1011.35 131.2H945.11L935.75 151H897.95ZM957.35 104.38H999.11L987.95 79.18C987.47 78.1 986.81 76.54 985.97 74.5C985.13 72.34 984.23 70.12 983.27 67.84C982.31 65.44 981.47 63.28 980.75 61.36C980.03 59.32 979.43 57.82 978.95 56.86H977.69C976.85 59.02 975.83 61.54 974.63 64.42C973.43 67.3 972.29 70.06 971.21 72.7C970.25 75.34 969.35 77.5 968.51 79.18L957.35 104.38Z" fill="#22352D"/>
<path d="M1143.57 153.16C1126.29 153.16 1111.89 150.76 1100.37 145.96C1088.85 141.04 1080.21 133.84 1074.45 124.36C1068.69 114.88 1065.81 103.12 1065.81 89.08C1065.81 68.56 1072.41 52.78 1085.61 41.74C1098.93 30.58 1118.31 25 1143.75 25C1157.91 25 1170.39 27.16 1181.19 31.48C1191.99 35.68 1200.39 41.68 1206.39 49.48C1212.51 57.16 1215.57 66.28 1215.57 76.84H1179.93C1179.93 71.68 1178.37 67.3 1175.25 63.7C1172.25 59.98 1167.99 57.16 1162.47 55.24C1156.95 53.2 1150.53 52.18 1143.21 52.18C1134.57 52.18 1127.31 53.68 1121.43 56.68C1115.55 59.56 1111.05 63.58 1107.93 68.74C1104.93 73.9 1103.43 79.9 1103.43 86.74V91.24C1103.43 98.08 1104.93 104.14 1107.93 109.42C1111.05 114.58 1115.49 118.66 1121.25 121.66C1127.13 124.54 1134.27 125.98 1142.67 125.98C1150.59 125.98 1157.37 125.08 1163.01 123.28C1168.77 121.36 1173.15 118.6 1176.15 115C1179.27 111.4 1180.83 107.08 1180.83 102.04H1215.75C1215.75 112.24 1212.81 121.18 1206.93 128.86C1201.05 136.54 1192.71 142.54 1181.91 146.86C1171.23 151.06 1158.45 153.16 1143.57 153.16Z" fill="#22352D"/>
<path d="M1225.25 151L1286.09 27.16H1326.95L1387.79 151H1348.01L1338.65 131.2H1272.41L1263.05 151H1225.25ZM1284.65 104.38H1326.41L1315.25 79.18C1314.77 78.1 1314.11 76.54 1313.27 74.5C1312.43 72.34 1311.53 70.12 1310.57 67.84C1309.61 65.44 1308.77 63.28 1308.05 61.36C1307.33 59.32 1306.73 57.82 1306.25 56.86H1304.99C1304.15 59.02 1303.13 61.54 1301.93 64.42C1300.73 67.3 1299.59 70.06 1298.51 72.7C1297.55 75.34 1296.65 77.5 1295.81 79.18L1284.65 104.38Z" fill="#22352D"/>
<path d="M1405.73 151V27.16H1474.85C1490.09 27.16 1503.23 29.56 1514.27 34.36C1525.31 39.16 1533.77 46.18 1539.65 55.42C1545.53 64.66 1548.47 75.88 1548.47 89.08C1548.47 102.4 1545.53 113.68 1539.65 122.92C1533.77 132.04 1525.31 139 1514.27 143.8C1503.23 148.6 1490.09 151 1474.85 151H1405.73ZM1442.27 123.82H1472.69C1478.45 123.82 1483.61 123.1 1488.17 121.66C1492.85 120.1 1496.87 117.94 1500.23 115.18C1503.59 112.42 1506.17 109 1507.97 104.92C1509.89 100.84 1510.85 96.22 1510.85 91.06V86.92C1510.85 81.76 1509.89 77.2 1507.97 73.24C1506.17 69.16 1503.59 65.74 1500.23 62.98C1496.87 60.22 1492.85 58.12 1488.17 56.68C1483.61 55.12 1478.45 54.34 1472.69 54.34H1442.27V123.82Z" fill="#22352D"/>
<path d="M1573.6 151V27.16H1702.48V54.34H1610.32V75.22H1690.96V101.5H1610.32V123.82H1703.92V151H1573.6Z" fill="#22352D"/>
<path d="M1728.99 151V27.16H1786.23L1807.47 80.98C1808.43 83.14 1809.45 85.9 1810.53 89.26C1811.73 92.62 1812.87 96.1 1813.95 99.7C1815.15 103.18 1816.23 106.3 1817.19 109.06H1818.45C1819.17 106.54 1820.07 103.6 1821.15 100.24C1822.35 96.88 1823.55 93.52 1824.75 90.16C1826.07 86.68 1827.21 83.62 1828.17 80.98L1849.41 27.16H1905.03V151H1868.49V87.1C1868.49 84.58 1868.49 81.76 1868.49 78.64C1868.61 75.52 1868.73 72.46 1868.85 69.46C1868.97 66.46 1869.03 63.88 1869.03 61.72H1867.59C1866.87 64 1865.97 66.7 1864.89 69.82C1863.81 72.94 1862.73 76.06 1861.65 79.18C1860.69 82.18 1859.73 84.82 1858.77 87.1L1832.85 151H1799.37L1773.27 87.1C1772.07 83.98 1770.87 80.8 1769.67 77.56C1768.59 74.32 1767.57 71.32 1766.61 68.56C1765.77 65.68 1765.05 63.4 1764.45 61.72H1763.01C1763.13 63.4 1763.19 65.62 1763.19 68.38C1763.31 71.14 1763.37 74.14 1763.37 77.38C1763.49 80.62 1763.55 83.86 1763.55 87.1V151H1728.99Z" fill="#22352D"/>
<path d="M1984.67 151V101.68L1923.47 27.16H1966.85L2003.03 73.6H2004.65L2041.19 27.16H2082.59L2021.39 101.68V151H1984.67Z" fill="#22352D"/>
</svg>
