<svg width="1185" height="363" viewBox="0 0 1185 363" fill="none" xmlns="http://www.w3.org/2000/svg">
<path d="M191.55 175V164C191.55 155.667 193.55 148.167 197.55 141.5C201.55 134.833 206.8 128.75 213.3 123.25C219.967 117.583 227.217 112.333 235.05 107.5C243.05 102.667 250.967 98 258.8 93.5C267.8 88.3333 276.217 83.6667 284.05 79.5C291.883 75.1667 298.3 70.8333 303.3 66.5C308.3 62 310.8 57.1667 310.8 52C310.8 48 309.55 44.5 307.05 41.5C304.55 38.5 300.8 36.1667 295.8 34.5C290.8 32.8333 284.217 32 276.05 32C267.883 32 260.967 33.1667 255.3 35.5C249.8 37.8333 245.633 40.9167 242.8 44.75C240.133 48.5833 238.8 52.8333 238.8 57.5V63.5H193.05C192.883 62.3333 192.717 61.3333 192.55 60.5C192.55 59.5 192.55 58.4167 192.55 57.25C192.55 45.25 195.967 35.0833 202.8 26.75C209.8 18.25 219.883 11.6667 233.05 7C246.217 2.33333 262.217 0 281.05 0C292.883 0 303.55 1.08333 313.05 3.25C322.717 5.41667 331.05 8.58334 338.05 12.75C345.05 16.9167 350.383 22.1667 354.05 28.5C357.717 34.8333 359.55 42.25 359.55 50.75C359.55 58.9167 357.467 66.3333 353.3 73C349.3 79.6667 343.883 85.75 337.05 91.25C330.383 96.5833 322.967 101.417 314.8 105.75C306.8 110.083 298.8 114.083 290.8 117.75C286.133 119.917 281.467 122.083 276.8 124.25C272.133 126.25 267.883 128.25 264.05 130.25C260.383 132.25 257.383 134.333 255.05 136.5H361.55V175H191.55Z" fill="#22352D"/>
<path d="M475.851 178C456.351 178 439.851 175.583 426.351 170.75C413.017 165.75 402.851 158.917 395.851 150.25C389.017 141.417 385.601 131.333 385.601 120H430.601C430.767 125.5 432.601 130.25 436.101 134.25C439.601 138.25 444.351 141.333 450.351 143.5C456.517 145.667 463.517 146.75 471.351 146.75C478.684 146.75 485.434 145.667 491.601 143.5C497.767 141.333 502.684 138.167 506.351 134C510.184 129.667 512.101 124.25 512.101 117.75C512.101 111.417 510.434 106.167 507.101 102C503.934 97.8333 499.351 94.75 493.351 92.75C487.517 90.5833 480.517 89.5 472.351 89.5C466.517 89.5 461.101 90.0833 456.101 91.25C451.267 92.25 447.017 93.8333 443.351 96C439.684 98.1667 436.684 100.917 434.351 104.25L394.601 99.25L403.601 3.00001H545.351V41H439.601L436.351 73.25C439.017 71.4167 442.767 69.5833 447.601 67.75C452.601 65.75 458.434 64 465.101 62.5C471.767 61 479.101 60.25 487.101 60.25C501.767 60.25 514.517 62.5 525.351 67C536.351 71.3333 544.934 77.8333 551.101 86.5C557.267 95 560.351 105.667 560.351 118.5C560.351 130 556.934 140.25 550.101 149.25C543.267 158.25 533.517 165.333 520.851 170.5C508.184 175.5 493.184 178 475.851 178Z" fill="#22352D"/>
<path d="M670.366 178C654.366 178 640.783 175.917 629.616 171.75C618.616 167.583 609.7 161.583 602.866 153.75C596.033 145.917 591.033 136.583 587.866 125.75C584.866 114.917 583.366 102.667 583.366 89C583.366 75.3333 584.866 63.0833 587.866 52.25C591.033 41.4167 595.95 32.0833 602.616 24.25C609.45 16.4167 618.366 10.4167 629.366 6.25001C640.533 2.08334 654.116 0 670.116 0C686.116 0 699.616 2.08334 710.616 6.25001C721.616 10.4167 730.533 16.4167 737.366 24.25C744.2 32.0833 749.116 41.4167 752.116 52.25C755.283 63.0833 756.866 75.3333 756.866 89C756.866 102.667 755.283 114.917 752.116 125.75C749.116 136.583 744.2 145.917 737.366 153.75C730.7 161.583 721.866 167.583 710.866 171.75C699.866 175.917 686.366 178 670.366 178ZM670.366 146.75C680.033 146.75 687.7 144.833 693.366 141C699.033 137 703.116 131.167 705.616 123.5C708.116 115.833 709.366 106.167 709.366 94.5V83C709.366 71.3333 708.116 61.6667 705.616 54C703.116 46.3333 699.033 40.6667 693.366 37C687.7 33.1667 680.033 31.25 670.366 31.25C660.866 31.25 653.2 33.1667 647.366 37C641.7 40.6667 637.533 46.3333 634.866 54C632.366 61.6667 631.116 71.3333 631.116 83V94.5C631.116 106.167 632.366 115.833 634.866 123.5C637.533 131.167 641.7 137 647.366 141C653.2 144.833 660.866 146.75 670.366 146.75Z" fill="#22352D"/>
<path d="M789.65 175V3.00001H840.4V86.5L933.9 3.00001H998.15L919.65 74L999.9 175H936.9L882.15 104.5L840.4 138.25V175H789.65Z" fill="#B14F32"/>
<path d="M0 360L60.84 236.16H101.7L162.54 360H122.76L113.4 340.2H47.16L37.8 360H0ZM59.4 313.38H101.16L90 288.18C89.52 287.1 88.86 285.54 88.02 283.5C87.18 281.34 86.28 279.12 85.32 276.84C84.36 274.44 83.52 272.28 82.8 270.36C82.08 268.32 81.48 266.82 81 265.86H79.74C78.9 268.02 77.88 270.54 76.68 273.42C75.48 276.3 74.34 279.06 73.26 281.7C72.3 284.34 71.4 286.5 70.56 288.18L59.4 313.38Z" fill="#22352D"/>
<path d="M245.624 362.16C228.344 362.16 213.944 359.76 202.424 354.96C190.904 350.04 182.264 342.84 176.504 333.36C170.744 323.88 167.864 312.12 167.864 298.08C167.864 277.56 174.464 261.78 187.664 250.74C200.984 239.58 220.364 234 245.804 234C259.964 234 272.444 236.16 283.244 240.48C294.044 244.68 302.444 250.68 308.444 258.48C314.564 266.16 317.624 275.28 317.624 285.84H281.984C281.984 280.68 280.424 276.3 277.304 272.7C274.304 268.98 270.044 266.16 264.524 264.24C259.004 262.2 252.584 261.18 245.264 261.18C236.624 261.18 229.364 262.68 223.484 265.68C217.604 268.56 213.104 272.58 209.984 277.74C206.984 282.9 205.484 288.9 205.484 295.74V300.24C205.484 307.08 206.984 313.14 209.984 318.42C213.104 323.58 217.544 327.66 223.304 330.66C229.184 333.54 236.324 334.98 244.724 334.98C252.644 334.98 259.424 334.08 265.064 332.28C270.824 330.36 275.204 327.6 278.204 324C281.324 320.4 282.884 316.08 282.884 311.04H317.804C317.804 321.24 314.864 330.18 308.984 337.86C303.104 345.54 294.764 351.54 283.964 355.86C273.284 360.06 260.504 362.16 245.624 362.16Z" fill="#22352D"/>
<path d="M327.305 360L388.145 236.16H429.005L489.845 360H450.065L440.705 340.2H374.465L365.105 360H327.305ZM386.705 313.38H428.465L417.305 288.18C416.825 287.1 416.165 285.54 415.325 283.5C414.485 281.34 413.585 279.12 412.625 276.84C411.665 274.44 410.825 272.28 410.105 270.36C409.385 268.32 408.785 266.82 408.305 265.86H407.045C406.205 268.02 405.185 270.54 403.985 273.42C402.785 276.3 401.645 279.06 400.565 281.7C399.605 284.34 398.705 286.5 397.865 288.18L386.705 313.38Z" fill="#22352D"/>
<path d="M507.776 360V236.16H576.896C592.136 236.16 605.276 238.56 616.316 243.36C627.356 248.16 635.816 255.18 641.696 264.42C647.576 273.66 650.516 284.88 650.516 298.08C650.516 311.4 647.576 322.68 641.696 331.92C635.816 341.04 627.356 348 616.316 352.8C605.276 357.6 592.136 360 576.896 360H507.776ZM544.316 332.82H574.736C580.496 332.82 585.656 332.1 590.216 330.66C594.896 329.1 598.916 326.94 602.276 324.18C605.636 321.42 608.216 318 610.016 313.92C611.936 309.84 612.896 305.22 612.896 300.06V295.92C612.896 290.76 611.936 286.2 610.016 282.24C608.216 278.16 605.636 274.74 602.276 271.98C598.916 269.22 594.896 267.12 590.216 265.68C585.656 264.12 580.496 263.34 574.736 263.34H544.316V332.82Z" fill="#22352D"/>
<path d="M675.647 360V236.16H804.527V263.34H712.367V284.22H793.007V310.5H712.367V332.82H805.967V360H675.647Z" fill="#22352D"/>
<path d="M831.037 360V236.16H888.278L909.518 289.98C910.478 292.14 911.498 294.9 912.578 298.26C913.778 301.62 914.917 305.1 915.997 308.7C917.197 312.18 918.277 315.3 919.237 318.06H920.497C921.217 315.54 922.118 312.6 923.198 309.24C924.398 305.88 925.597 302.52 926.797 299.16C928.117 295.68 929.258 292.62 930.218 289.98L951.458 236.16H1007.08V360H970.537V296.1C970.537 293.58 970.537 290.76 970.537 287.64C970.657 284.52 970.778 281.46 970.898 278.46C971.018 275.46 971.078 272.88 971.078 270.72H969.638C968.918 273 968.018 275.7 966.938 278.82C965.857 281.94 964.778 285.06 963.698 288.18C962.738 291.18 961.777 293.82 960.818 296.1L934.898 360H901.417L875.318 296.1C874.118 292.98 872.918 289.8 871.718 286.56C870.638 283.32 869.617 280.32 868.657 277.56C867.817 274.68 867.097 272.4 866.497 270.72H865.057C865.177 272.4 865.237 274.62 865.237 277.38C865.357 280.14 865.417 283.14 865.417 286.38C865.537 289.62 865.597 292.86 865.597 296.1V360H831.037Z" fill="#22352D"/>
<path d="M1086.72 360V310.68L1025.52 236.16H1068.9L1105.08 282.6H1106.7L1143.24 236.16H1184.64L1123.44 310.68V360H1086.72Z" fill="#22352D"/>
</svg>
