<svg width="1963" height="178" viewBox="0 0 1963 178" fill="none" xmlns="http://www.w3.org/2000/svg">
<path d="M108 178C84 178 64 174.667 48 168C32 161.167 20 151.167 12 138C4 124.833 0 108.5 0 89C0 60.5 9.16667 38.5833 27.5 23.25C46 7.75 72.9167 0 108.25 0C127.917 0 145.25 3 160.25 9C175.25 14.8333 186.917 23.1667 195.25 34C203.75 44.6667 208 57.3333 208 72H158.5C158.5 64.8333 156.333 58.75 152 53.75C147.833 48.5833 141.917 44.6667 134.25 42C126.583 39.1667 117.667 37.75 107.5 37.75C95.5 37.75 85.4167 39.8333 77.25 44C69.0833 48 62.8333 53.5833 58.5 60.75C54.3333 67.9167 52.25 76.25 52.25 85.75V92C52.25 101.5 54.3333 109.917 58.5 117.25C62.8333 124.417 69 130.083 77 134.25C85.1667 138.25 95.0833 140.25 106.75 140.25C117.75 140.25 127.167 139 135 136.5C143 133.833 149.083 130 153.25 125C157.583 120 159.75 114 159.75 107H208.25C208.25 121.167 204.167 133.583 196 144.25C187.833 154.917 176.25 163.25 161.25 169.25C146.417 175.083 128.667 178 108 178Z" fill="#22352D"/>
<path d="M243.096 175V3.00001H422.096V40.75H294.096V69.75H406.096V106.25H294.096V137.25H424.096V175H243.096Z" fill="#22352D"/>
<path d="M458.916 175V3.00001H601.916C614.416 3.00001 624.749 5.58334 632.916 10.75C641.083 15.9167 647.249 22.75 651.416 31.25C655.583 39.5833 657.666 48.75 657.666 58.75C657.666 69.5833 655.083 79.5 649.916 88.5C644.749 97.3333 636.999 104.333 626.666 109.5L661.666 175H604.166L575.666 117.75H509.666V175H458.916ZM509.666 80.25H585.166C591.333 80.25 596.249 78.4167 599.916 74.75C603.583 71.0833 605.416 66.1667 605.416 60C605.416 56 604.583 52.5833 602.916 49.75C601.249 46.75 598.916 44.5 595.916 43C592.916 41.5 589.333 40.75 585.166 40.75H509.666V80.25Z" fill="#22352D"/>
<path d="M748.635 175V44H674.135V3.00001H874.135V44H799.635V175H748.635Z" fill="#22352D"/>
<path d="M901.299 175V3.00001H952.049V175H901.299Z" fill="#22352D"/>
<path d="M994.561 175V3.00001H1163.56V40.75H1045.31V75.5H1150.56V113.25H1045.31V175H994.561Z" fill="#22352D"/>
<path d="M1194.27 175V3.00001H1245.02V175H1194.27Z" fill="#22352D"/>
<path d="M1388.03 178C1364.03 178 1344.03 174.667 1328.03 168C1312.03 161.167 1300.03 151.167 1292.03 138C1284.03 124.833 1280.03 108.5 1280.03 89C1280.03 60.5 1289.2 38.5833 1307.53 23.25C1326.03 7.75 1352.95 0 1388.28 0C1407.95 0 1425.28 3 1440.28 9C1455.28 14.8333 1466.95 23.1667 1475.28 34C1483.78 44.6667 1488.03 57.3333 1488.03 72H1438.53C1438.53 64.8333 1436.36 58.75 1432.03 53.75C1427.86 48.5833 1421.95 44.6667 1414.28 42C1406.61 39.1667 1397.7 37.75 1387.53 37.75C1375.53 37.75 1365.45 39.8333 1357.28 44C1349.11 48 1342.86 53.5833 1338.53 60.75C1334.36 67.9167 1332.28 76.25 1332.28 85.75V92C1332.28 101.5 1334.36 109.917 1338.53 117.25C1342.86 124.417 1349.03 130.083 1357.03 134.25C1365.2 138.25 1375.11 140.25 1386.78 140.25C1397.78 140.25 1407.2 139 1415.03 136.5C1423.03 133.833 1429.11 130 1433.28 125C1437.61 120 1439.78 114 1439.78 107H1488.28C1488.28 121.167 1484.2 133.583 1476.03 144.25C1467.86 154.917 1456.28 163.25 1441.28 169.25C1426.45 175.083 1408.7 178 1388.03 178Z" fill="#22352D"/>
<path d="M1501.47 175L1585.97 3.00001H1642.72L1727.22 175H1671.97L1658.97 147.5H1566.97L1553.97 175H1501.47ZM1583.97 110.25H1641.97L1626.47 75.25C1625.81 73.75 1624.89 71.5833 1623.72 68.75C1622.56 65.75 1621.31 62.6667 1619.97 59.5C1618.64 56.1667 1617.47 53.1667 1616.47 50.5C1615.47 47.6667 1614.64 45.5833 1613.97 44.25H1612.22C1611.06 47.25 1609.64 50.75 1607.97 54.75C1606.31 58.75 1604.72 62.5833 1603.22 66.25C1601.89 69.9167 1600.64 72.9167 1599.47 75.25L1583.97 110.25Z" fill="#22352D"/>
<path d="M1752.13 175V3.00001H1802.88V86.5L1896.38 3.00001H1960.63L1882.13 74L1962.38 175H1899.38L1844.63 104.5L1802.88 138.25V175H1752.13Z" fill="#B14F32"/>
</svg>
