<svg width="953" height="172" viewBox="0 0 953 172" fill="none" xmlns="http://www.w3.org/2000/svg">
<path d="M0 172V0H169V37.75H50.75V72.5H156V110.25H50.75V172H0Z" fill="#22352D"/>
<path d="M199.707 172V0H250.457V172H199.707Z" fill="#22352D"/>
<path d="M292.969 172V0H471.969V37.75H343.969V66.75H455.969V103.25H343.969V134.25H473.969V172H292.969Z" fill="#22352D"/>
<path d="M508.789 172V0H604.789C625.956 0 644.206 3.33334 659.539 10C674.872 16.6667 686.622 26.4167 694.789 39.25C702.956 52.0833 707.039 67.6667 707.039 86C707.039 104.5 702.956 120.167 694.789 133C686.622 145.667 674.872 155.333 659.539 162C644.206 168.667 625.956 172 604.789 172H508.789ZM559.539 134.25H601.789C609.789 134.25 616.956 133.25 623.289 131.25C629.789 129.083 635.372 126.083 640.039 122.25C644.706 118.417 648.289 113.667 650.789 108C653.456 102.333 654.789 95.9167 654.789 88.75V83C654.789 75.8333 653.456 69.5 650.789 64C648.289 58.3333 644.706 53.5833 640.039 49.75C635.372 45.9167 629.789 43 623.289 41C616.956 38.8333 609.789 37.75 601.789 37.75H559.539V134.25Z" fill="#22352D"/>
<path d="M741.943 172V0H792.693V83.5L886.193 0H950.443L871.943 71L952.193 172H889.193L834.443 101.5L792.693 135.25V172H741.943Z" fill="#B14F32"/>
</svg>
