<svg width="1682" height="178" viewBox="0 0 1682 178" fill="none" xmlns="http://www.w3.org/2000/svg">
<path d="M0 175V3.00001H169V40.75H50.75V75.5H156V113.25H50.75V175H0Z" fill="#22352D"/>
<path d="M199.707 175V3.00001H250.457V175H199.707Z" fill="#22352D"/>
<path d="M292.969 175V3.00001H338.469L427.469 83.25C428.969 84.5833 430.885 86.4167 433.219 88.75C435.719 91.0833 438.219 93.5 440.719 96C443.385 98.5 445.635 100.833 447.469 103H449.719C449.719 100 449.635 96.25 449.469 91.75C449.469 87.25 449.469 83.25 449.469 79.75V3.00001H497.469V175H452.719L365.719 96.5C361.719 93 357.552 89.0833 353.219 84.75C348.885 80.4167 345.385 77 342.719 74.5H340.719C340.719 76.6667 340.719 80.1667 340.719 85C340.885 89.8333 340.969 95 340.969 100.5V175H292.969Z" fill="#22352D"/>
<path d="M522.539 175L607.039 3.00001H663.789L748.289 175H693.039L680.039 147.5H588.039L575.039 175H522.539ZM605.039 110.25H663.039L647.539 75.25C646.872 73.75 645.956 71.5833 644.789 68.75C643.622 65.75 642.372 62.6667 641.039 59.5C639.706 56.1667 638.539 53.1667 637.539 50.5C636.539 47.6667 635.706 45.5833 635.039 44.25H633.289C632.122 47.25 630.706 50.75 629.039 54.75C627.372 58.75 625.789 62.5833 624.289 66.25C622.956 69.9167 621.706 72.9167 620.539 75.25L605.039 110.25Z" fill="#22352D"/>
<path d="M773.193 175V3.00001H818.693L907.693 83.25C909.193 84.5833 911.11 86.4167 913.443 88.75C915.943 91.0833 918.443 93.5 920.943 96C923.61 98.5 925.86 100.833 927.693 103H929.943C929.943 100 929.86 96.25 929.693 91.75C929.693 87.25 929.693 83.25 929.693 79.75V3.00001H977.693V175H932.943L845.943 96.5C841.943 93 837.777 89.0833 833.443 84.75C829.11 80.4167 825.61 77 822.943 74.5H820.943C820.943 76.6667 820.943 80.1667 820.943 85C821.11 89.8333 821.193 95 821.193 100.5V175H773.193Z" fill="#22352D"/>
<path d="M1120.76 178C1096.76 178 1076.76 174.667 1060.76 168C1044.76 161.167 1032.76 151.167 1024.76 138C1016.76 124.833 1012.76 108.5 1012.76 89C1012.76 60.5 1021.93 38.5833 1040.26 23.25C1058.76 7.75 1085.68 0 1121.01 0C1140.68 0 1158.01 3 1173.01 9C1188.01 14.8333 1199.68 23.1667 1208.01 34C1216.51 44.6667 1220.76 57.3333 1220.76 72H1171.26C1171.26 64.8333 1169.1 58.75 1164.76 53.75C1160.6 48.5833 1154.68 44.6667 1147.01 42C1139.35 39.1667 1130.43 37.75 1120.26 37.75C1108.26 37.75 1098.18 39.8333 1090.01 44C1081.85 48 1075.6 53.5833 1071.26 60.75C1067.1 67.9167 1065.01 76.25 1065.01 85.75V92C1065.01 101.5 1067.1 109.917 1071.26 117.25C1075.6 124.417 1081.76 130.083 1089.76 134.25C1097.93 138.25 1107.85 140.25 1119.51 140.25C1130.51 140.25 1139.93 139 1147.76 136.5C1155.76 133.833 1161.85 130 1166.01 125C1170.35 120 1172.51 114 1172.51 107H1221.01C1221.01 121.167 1216.93 133.583 1208.76 144.25C1200.6 154.917 1189.01 163.25 1174.01 169.25C1159.18 175.083 1141.43 178 1120.76 178Z" fill="#22352D"/>
<path d="M1255.86 175V3.00001H1434.86V40.75H1306.86V69.75H1418.86V106.25H1306.86V137.25H1436.86V175H1255.86Z" fill="#22352D"/>
<path d="M1471.68 175V3.00001H1522.43V86.5L1615.93 3.00001H1680.18L1601.68 74L1681.93 175H1618.93L1564.18 104.5L1522.43 138.25V175H1471.68Z" fill="#B14F32"/>
</svg>
