<svg width="659" height="172" viewBox="0 0 659 172" fill="none" xmlns="http://www.w3.org/2000/svg">
<path d="M0 172V0H132.5C143.833 0 153.667 2.5 162 7.49999C170.5 12.5 177.083 19.4167 181.75 28.25C186.583 36.9167 189 47 189 58.5C189 70 186.583 80.25 181.75 89.25C176.917 98.0833 170.25 105 161.75 110C153.25 114.833 143.333 117.25 132 117.25H50.75V172H0ZM50.75 79.5H118C125.5 79.5 131.167 77.75 135 74.25C139 70.5833 141 65.4167 141 58.75C141 54.25 140.083 50.5 138.25 47.5C136.417 44.3333 133.833 41.9167 130.5 40.25C127.167 38.5833 123 37.75 118 37.75H50.75V79.5Z" fill="#22352D"/>
<path d="M215.332 172V0H311.332C332.499 0 350.749 3.33334 366.082 10C381.415 16.6667 393.165 26.4167 401.332 39.25C409.499 52.0833 413.582 67.6667 413.582 86C413.582 104.5 409.499 120.167 401.332 133C393.165 145.667 381.415 155.333 366.082 162C350.749 168.667 332.499 172 311.332 172H215.332ZM266.082 134.25H308.332C316.332 134.25 323.499 133.25 329.832 131.25C336.332 129.083 341.915 126.083 346.582 122.25C351.249 118.417 354.832 113.667 357.332 108C359.999 102.333 361.332 95.9167 361.332 88.75V83C361.332 75.8333 359.999 69.5 357.332 64C354.832 58.3333 351.249 53.5833 346.582 49.75C341.915 45.9167 336.332 43 329.832 41C323.499 38.8333 316.332 37.75 308.332 37.75H266.082V134.25Z" fill="#22352D"/>
<path d="M448.486 172V0H499.236V83.5L592.736 0H656.986L578.486 71L658.736 172H595.736L540.986 101.5L499.236 135.25V172H448.486Z" fill="#B14F32"/>
</svg>
