<svg width="2129" height="178" viewBox="0 0 2129 178" fill="none" xmlns="http://www.w3.org/2000/svg">
<path d="M100.5 178C86.5 178 73.4167 177.167 61.25 175.5C49.0833 173.833 38.4167 170.917 29.25 166.75C20.0833 162.583 12.9167 156.75 7.75 149.25C2.58333 141.75 0 132.25 0 120.75C0 120.417 0 120 0 119.5C0 119 0.0833335 118.5 0.250001 118H50.25C50.0833 118.667 49.9167 119.333 49.75 120C49.75 120.667 49.75 121.417 49.75 122.25C49.75 127.417 51.6667 131.5 55.5 134.5C59.5 137.333 65 139.333 72 140.5C79 141.667 87.25 142.25 96.75 142.25C100.583 142.25 104.5 142.167 108.5 142C112.667 141.667 116.667 141.25 120.5 140.75C124.333 140.083 127.75 139.167 130.75 138C133.917 136.833 136.333 135.417 138 133.75C139.833 131.917 140.75 129.667 140.75 127C140.75 123.5 138.833 120.75 135 118.75C131.333 116.583 126.167 114.917 119.5 113.75C113 112.417 105.667 111.25 97.5 110.25C89.5 109.25 81.1667 108.083 72.5 106.75C63.8333 105.25 55.4167 103.333 47.25 101C39.0833 98.5 31.75 95.25 25.25 91.25C18.75 87.25 13.5833 82.0833 9.75 75.75C5.91667 69.4167 4 61.75 4 52.75C4 43.5833 6.25 35.75 10.75 29.25C15.4167 22.5833 21.9167 17.0833 30.25 12.75C38.5833 8.41667 48.4167 5.25001 59.75 3.25C71.0833 1.08333 83.4167 0 96.75 0C110.417 0 122.75 1.08333 133.75 3.25C144.917 5.41667 154.417 8.66667 162.25 13C170.25 17.1667 176.333 22.5 180.5 29C184.833 35.3333 187 42.8333 187 51.5V55H137.75V53C137.75 49.5 136.25 46.4167 133.25 43.75C130.25 40.9167 125.833 38.75 120 37.25C114.333 35.5833 107.417 34.75 99.25 34.75C89.4167 34.75 81.3333 35.4167 75 36.75C68.6667 37.9167 64 39.5833 61 41.75C58 43.75 56.5 46.0833 56.5 48.75C56.5 52.0833 58.4167 54.75 62.25 56.75C66.0833 58.5833 71.25 60.0833 77.75 61.25C84.25 62.4167 91.5 63.5 99.5 64.5C107.667 65.5 116.083 66.6667 124.75 68C133.583 69.3333 142 71.1667 150 73.5C158.167 75.8333 165.5 79 172 83C178.5 86.8333 183.667 91.8333 187.5 98C191.333 104 193.25 111.417 193.25 120.25C193.25 134.083 189.25 145.25 181.25 153.75C173.25 162.25 162.25 168.417 148.25 172.25C134.417 176.083 118.5 178 100.5 178Z" fill="#22352D"/>
<path d="M330.797 178C307.797 178 287.797 174.5 270.797 167.5C253.964 160.333 240.964 150.167 231.797 137C222.63 123.667 218.047 107.667 218.047 89C218.047 70.3333 222.63 54.4167 231.797 41.25C240.964 27.9167 253.964 17.75 270.797 10.75C287.797 3.58334 307.797 0 330.797 0C354.13 0 374.214 3.58334 391.047 10.75C407.88 17.75 420.88 27.9167 430.047 41.25C439.214 54.4167 443.797 70.3333 443.797 89C443.797 107.667 439.214 123.667 430.047 137C420.88 150.167 407.88 160.333 391.047 167.5C374.214 174.5 354.13 178 330.797 178ZM330.797 140.25C339.797 140.25 347.964 139.167 355.297 137C362.797 134.833 369.214 131.667 374.547 127.5C379.88 123.333 383.964 118.25 386.797 112.25C389.797 106.083 391.297 99.25 391.297 91.75V85.75C391.297 78.4167 389.797 71.75 386.797 65.75C383.964 59.75 379.88 54.6667 374.547 50.5C369.214 46.3333 362.797 43.1667 355.297 41C347.964 38.8333 339.797 37.75 330.797 37.75C321.797 37.75 313.63 38.8333 306.297 41C298.964 43.1667 292.547 46.3333 287.047 50.5C281.714 54.6667 277.63 59.75 274.797 65.75C271.964 71.75 270.547 78.4167 270.547 85.75V91.75C270.547 99.25 271.964 106.083 274.797 112.25C277.63 118.25 281.714 123.333 287.047 127.5C292.547 131.667 298.964 134.833 306.297 137C313.63 139.167 321.797 140.25 330.797 140.25Z" fill="#22352D"/>
<path d="M478.721 175V3.00001H529.471V134H639.971V175H478.721Z" fill="#22352D"/>
<path d="M759.996 178C736.996 178 716.996 174.5 699.996 167.5C683.163 160.333 670.163 150.167 660.996 137C651.829 123.667 647.246 107.667 647.246 89C647.246 70.3333 651.829 54.4167 660.996 41.25C670.163 27.9167 683.163 17.75 699.996 10.75C716.996 3.58334 736.996 0 759.996 0C783.329 0 803.413 3.58334 820.246 10.75C837.079 17.75 850.079 27.9167 859.246 41.25C868.413 54.4167 872.996 70.3333 872.996 89C872.996 107.667 868.413 123.667 859.246 137C850.079 150.167 837.079 160.333 820.246 167.5C803.413 174.5 783.329 178 759.996 178ZM759.996 140.25C768.996 140.25 777.163 139.167 784.496 137C791.996 134.833 798.413 131.667 803.746 127.5C809.079 123.333 813.163 118.25 815.996 112.25C818.996 106.083 820.496 99.25 820.496 91.75V85.75C820.496 78.4167 818.996 71.75 815.996 65.75C813.163 59.75 809.079 54.6667 803.746 50.5C798.413 46.3333 791.996 43.1667 784.496 41C777.163 38.8333 768.996 37.75 759.996 37.75C750.996 37.75 742.829 38.8333 735.496 41C728.163 43.1667 721.746 46.3333 716.246 50.5C710.913 54.6667 706.829 59.75 703.996 65.75C701.163 71.75 699.746 78.4167 699.746 85.75V91.75C699.746 99.25 701.163 106.083 703.996 112.25C706.829 118.25 710.913 123.333 716.246 127.5C721.746 131.667 728.163 134.833 735.496 137C742.829 139.167 750.996 140.25 759.996 140.25Z" fill="#22352D"/>
<path d="M1084.35 178C1060.35 178 1040.35 174.667 1024.35 168C1008.35 161.167 996.348 151.167 988.348 138C980.348 124.833 976.348 108.5 976.348 89C976.348 60.5 985.514 38.5833 1003.85 23.25C1022.35 7.75 1049.26 0 1084.6 0C1104.26 0 1121.6 3 1136.6 9C1151.6 14.8333 1163.26 23.1667 1171.6 34C1180.1 44.6667 1184.35 57.3333 1184.35 72H1134.85C1134.85 64.8333 1132.68 58.75 1128.35 53.75C1124.18 48.5833 1118.26 44.6667 1110.6 42C1102.93 39.1667 1094.01 37.75 1083.85 37.75C1071.85 37.75 1061.76 39.8333 1053.6 44C1045.43 48 1039.18 53.5833 1034.85 60.75C1030.68 67.9167 1028.6 76.25 1028.6 85.75V92C1028.6 101.5 1030.68 109.917 1034.85 117.25C1039.18 124.417 1045.35 130.083 1053.35 134.25C1061.51 138.25 1071.43 140.25 1083.1 140.25C1094.1 140.25 1103.51 139 1111.35 136.5C1119.35 133.833 1125.43 130 1129.6 125C1133.93 120 1136.1 114 1136.1 107H1184.6C1184.6 121.167 1180.51 133.583 1172.35 144.25C1164.18 154.917 1152.6 163.25 1137.6 169.25C1122.76 175.083 1105.01 178 1084.35 178Z" fill="#22352D"/>
<path d="M1219.44 175V3.00001H1270.19V67H1373.44V3.00001H1424.19V175H1373.44V108H1270.19V175H1219.44Z" fill="#22352D"/>
<path d="M1466.76 175V3.00001H1645.76V40.75H1517.76V69.75H1629.76V106.25H1517.76V137.25H1647.76V175H1466.76Z" fill="#22352D"/>
<path d="M1783.08 178C1759.08 178 1739.08 174.667 1723.08 168C1707.08 161.167 1695.08 151.167 1687.08 138C1679.08 124.833 1675.08 108.5 1675.08 89C1675.08 60.5 1684.24 38.5833 1702.58 23.25C1721.08 7.75 1747.99 0 1783.33 0C1802.99 0 1820.33 3 1835.33 9C1850.33 14.8333 1861.99 23.1667 1870.33 34C1878.83 44.6667 1883.08 57.3333 1883.08 72H1833.58C1833.58 64.8333 1831.41 58.75 1827.08 53.75C1822.91 48.5833 1816.99 44.6667 1809.33 42C1801.66 39.1667 1792.74 37.75 1782.58 37.75C1770.58 37.75 1760.49 39.8333 1752.33 44C1744.16 48 1737.91 53.5833 1733.58 60.75C1729.41 67.9167 1727.33 76.25 1727.33 85.75V92C1727.33 101.5 1729.41 109.917 1733.58 117.25C1737.91 124.417 1744.08 130.083 1752.08 134.25C1760.24 138.25 1770.16 140.25 1781.83 140.25C1792.83 140.25 1802.24 139 1810.08 136.5C1818.08 133.833 1824.16 130 1828.33 125C1832.66 120 1834.83 114 1834.83 107H1883.33C1883.33 121.167 1879.24 133.583 1871.08 144.25C1862.91 154.917 1851.33 163.25 1836.33 169.25C1821.49 175.083 1803.74 178 1783.08 178Z" fill="#22352D"/>
<path d="M1918.17 175V3.00001H1968.92V86.5L2062.42 3.00001H2126.67L2048.17 74L2128.42 175H2065.42L2010.67 104.5L1968.92 138.25V175H1918.17Z" fill="#B14F32"/>
</svg>
